<?xml version='1.0' encoding='ascii'?>
<svg xmlns="http://www.w3.org/2000/svg" height="1080" version="1.1" width="1920">
    <g id="RenderLayer_LineSet" inkscape:groupmode="lineset" inkscape:label="RenderLayer_LineSet" xmlns:inkscape="http://www.inkscape.org/namespaces/inkscape">
        <g id="strokes" inkscape:groupmode="layer" inkscape:label="strokes" xmlns:inkscape="http://www.inkscape.org/namespaces/inkscape">
            <path d=" M 1225.162, 707.559 1229.762, 698.680 1234.362, 689.801 1238.962, 680.922 1243.562, 672.043 1248.162, 663.163 1252.762, 654.284 1257.362, 645.405 1261.962, 636.526 1266.562, 627.647 1270.800, 619.467 1271.425, 609.487 1272.050, 599.506 1272.675, 589.526 1273.300, 579.545 1273.925, 569.565 1274.550, 559.584 1275.176, 549.604 1275.801, 539.624 1276.426, 529.643 1277.051, 519.663 1277.676, 509.682 1278.301, 499.702 1278.926, 489.721 1279.062, 487.556 " fill="none" stroke="rgb(0, 0, 0)" stroke-linecap="butt" stroke-linejoin="mitter" stroke-opacity="1.0" stroke-width="3.0" />
            <path d=" M 1279.062, 487.556 1273.693, 487.622 " fill="none" stroke="rgb(0, 0, 0)" stroke-linecap="butt" stroke-linejoin="mitter" stroke-opacity="1.0" stroke-width="3.0" />
            <path d=" M 1279.062, 487.556 1271.928, 480.548 1271.789, 480.411 1266.588, 475.302 1266.214, 474.935 1265.890, 474.616 1264.532, 473.282 1261.367, 470.173 1258.958, 467.806 1256.837, 465.723 1256.833, 465.719 1251.541, 460.520 1249.425, 458.442 1247.067, 456.125 1246.433, 455.502 1241.692, 450.845 1241.640, 450.794 1241.609, 450.764 1234.476, 443.756 1227.342, 436.748 1220.208, 429.740 1213.074, 422.732 1205.941, 415.725 1198.807, 408.717 1191.673, 401.709 1184.540, 394.701 1177.406, 387.693 1170.272, 380.685 1164.403, 374.919 1159.780, 370.378 1153.265, 363.978 1149.937, 360.709 1146.718, 357.547 1144.088, 354.963 " fill="none" stroke="rgb(0, 0, 0)" stroke-linecap="butt" stroke-linejoin="mitter" stroke-opacity="1.0" stroke-width="3.0" />
            <path d=" M 1144.088, 354.963 1139.012, 363.579 1137.651, 365.888 " fill="none" stroke="rgb(0, 0, 0)" stroke-linecap="butt" stroke-linejoin="mitter" stroke-opacity="1.0" stroke-width="3.0" />
            <path d=" M 1144.088, 354.963 1136.928, 361.944 1134.168, 364.635 1133.967, 364.830 1133.933, 364.863 1133.662, 365.128 1126.502, 372.109 1119.342, 379.089 1112.182, 386.070 1105.022, 393.051 1097.862, 400.032 1090.702, 407.013 1083.542, 413.994 1076.382, 420.975 1069.222, 427.956 1062.062, 434.937 1060.835, 436.133 1056.310, 440.545 1049.621, 447.067 1044.167, 452.384 1037.007, 459.365 1029.847, 466.346 1022.687, 473.327 1015.527, 480.308 1008.367, 487.289 1001.207, 494.270 994.047, 501.251 989.830, 505.362 " fill="none" stroke="rgb(0, 0, 0)" stroke-linecap="butt" stroke-linejoin="mitter" stroke-opacity="1.0" stroke-width="3.0" />
            <path d=" M 989.830, 505.362 996.892, 504.197 " fill="none" stroke="rgb(0, 0, 0)" stroke-linecap="butt" stroke-linejoin="mitter" stroke-opacity="1.0" stroke-width="3.0" />
            <path d=" M 1058.982, 854.552 1066.473, 847.927 1073.963, 841.301 1081.119, 834.972 1088.609, 828.346 1096.099, 821.721 1097.277, 820.679 1097.690, 820.313 1105.181, 813.688 1112.671, 807.063 1116.920, 803.304 1124.410, 796.679 1126.220, 795.077 1130.017, 791.719 1135.579, 786.799 1143.069, 780.174 1145.435, 778.081 1152.925, 771.456 1160.415, 764.830 1165.188, 760.608 1166.139, 759.768 1170.567, 755.851 1171.032, 755.439 1178.523, 748.813 1183.673, 744.258 1185.019, 743.067 1192.509, 736.442 1196.248, 733.134 1200.107, 729.721 1200.385, 729.475 1203.711, 726.534 1211.201, 719.908 1211.830, 719.351 1216.536, 715.189 1224.026, 708.564 1225.162, 707.559 " fill="none" stroke="rgb(0, 0, 0)" stroke-linecap="butt" stroke-linejoin="mitter" stroke-opacity="1.0" stroke-width="3.0" />
            <path d=" M 1030.240, 206.510 1027.137, 211.121 " fill="none" stroke="rgb(0, 0, 0)" stroke-linecap="butt" stroke-linejoin="mitter" stroke-opacity="1.0" stroke-width="3.0" />
            <path d=" M 1030.240, 206.510 1020.251, 206.037 1010.263, 205.564 1000.274, 205.092 990.285, 204.619 980.296, 204.146 970.307, 203.673 960.318, 203.201 950.330, 202.728 940.341, 202.255 930.352, 201.783 920.363, 201.310 910.374, 200.837 900.386, 200.364 890.397, 199.892 880.408, 199.419 870.419, 198.946 860.430, 198.474 857.417, 198.331 " fill="none" stroke="rgb(0, 0, 0)" stroke-linecap="butt" stroke-linejoin="mitter" stroke-opacity="1.0" stroke-width="3.0" />
            <path d=" M 989.830, 505.362 994.717, 512.647 " fill="none" stroke="rgb(0, 0, 0)" stroke-linecap="butt" stroke-linejoin="mitter" stroke-opacity="1.0" stroke-width="3.0" />
            <path d=" M 989.830, 505.362 992.319, 515.047 994.809, 524.732 997.298, 534.417 999.788, 544.103 1002.278, 553.788 1004.767, 563.473 1006.512, 570.262 1008.455, 577.820 1010.945, 587.505 1013.434, 597.190 1015.924, 606.875 1018.414, 616.560 1020.903, 626.245 1023.393, 635.930 1024.323, 639.551 1026.355, 647.453 1028.844, 657.138 1031.334, 666.823 1033.823, 676.508 1036.313, 686.194 1038.803, 695.879 1041.054, 704.635 1043.080, 712.520 1045.020, 720.064 1045.265, 721.017 1045.602, 722.328 1045.749, 722.901 1048.238, 732.586 1048.496, 733.588 " fill="none" stroke="rgb(0, 0, 0)" stroke-linecap="butt" stroke-linejoin="mitter" stroke-opacity="1.0" stroke-width="3.0" />
            <path d=" M 1048.496, 733.588 1047.963, 723.602 1047.933, 723.050 " fill="none" stroke="rgb(0, 0, 0)" stroke-linecap="butt" stroke-linejoin="mitter" stroke-opacity="1.0" stroke-width="3.0" />
            <path d=" M 857.417, 198.331 861.263, 203.561 " fill="none" stroke="rgb(0, 0, 0)" stroke-linecap="butt" stroke-linejoin="mitter" stroke-opacity="1.0" stroke-width="3.0" />
            <path d=" M 857.417, 198.331 860.510, 203.527 864.432, 210.114 864.932, 210.953 867.372, 215.051 867.552, 215.353 872.668, 223.945 877.784, 232.538 879.989, 236.241 885.105, 244.833 887.439, 248.754 892.555, 257.346 892.651, 257.506 897.767, 266.099 900.695, 271.016 905.811, 279.609 910.927, 288.201 912.185, 290.314 " fill="none" stroke="rgb(0, 0, 0)" stroke-linecap="butt" stroke-linejoin="mitter" stroke-opacity="1.0" stroke-width="3.0" />
            <path d=" M 811.567, 672.061 806.509, 676.512 803.140, 679.476 796.514, 685.307 789.006, 691.913 781.499, 698.519 773.992, 705.125 766.484, 711.731 758.977, 718.337 751.469, 724.943 743.962, 731.549 736.454, 738.155 728.947, 744.760 725.245, 748.018 723.492, 749.560 719.458, 753.110 719.072, 753.449 718.897, 753.604 718.362, 754.074 718.261, 754.163 717.790, 754.577 713.852, 758.042 712.150, 759.541 710.065, 761.375 706.084, 764.877 " fill="none" stroke="rgb(0, 0, 0)" stroke-linecap="butt" stroke-linejoin="mitter" stroke-opacity="1.0" stroke-width="3.0" />
            <path d=" M 706.084, 764.877 711.365, 762.256 714.031, 760.932 " fill="none" stroke="rgb(0, 0, 0)" stroke-linecap="butt" stroke-linejoin="mitter" stroke-opacity="1.0" stroke-width="3.0" />
            <path d=" M 701.976, 329.290 706.389, 337.717 " fill="none" stroke="rgb(0, 0, 0)" stroke-linecap="butt" stroke-linejoin="mitter" stroke-opacity="1.0" stroke-width="3.0" />
            <path d=" M 701.976, 329.290 699.347, 338.938 697.092, 347.214 695.340, 353.645 692.711, 363.294 691.468, 367.854 688.839, 377.502 686.210, 387.150 684.287, 394.208 682.705, 400.014 680.795, 407.024 679.601, 411.407 676.972, 421.055 674.343, 430.704 671.714, 440.352 669.085, 450.000 666.456, 459.648 663.827, 469.297 661.198, 478.945 658.569, 488.593 655.940, 498.241 653.311, 507.889 650.682, 517.538 649.856, 520.567 648.713, 524.764 647.813, 528.064 646.150, 534.170 646.010, 534.683 644.155, 541.492 643.456, 544.056 640.827, 553.704 640.797, 553.816 " fill="none" stroke="rgb(0, 0, 0)" stroke-linecap="butt" stroke-linejoin="mitter" stroke-opacity="1.0" stroke-width="3.0" />
            <path d=" M 610.475, 442.593 613.106, 452.241 615.688, 461.713 618.318, 471.361 619.478, 475.616 619.839, 476.941 622.469, 486.589 625.100, 496.237 627.018, 503.273 629.648, 512.921 632.278, 522.569 634.908, 532.217 637.538, 541.865 640.168, 551.512 640.797, 553.816 " fill="none" stroke="rgb(0, 0, 0)" stroke-linecap="butt" stroke-linejoin="mitter" stroke-opacity="1.0" stroke-width="3.0" />
            <path d=" M 701.976, 329.290 695.693, 337.070 689.410, 344.850 684.457, 350.983 678.175, 358.763 671.892, 366.543 665.609, 374.323 659.326, 382.102 654.053, 388.632 650.500, 393.032 644.217, 400.812 637.934, 408.592 634.325, 413.060 628.042, 420.840 621.759, 428.620 615.477, 436.400 610.475, 442.593 " fill="none" stroke="rgb(0, 0, 0)" stroke-linecap="butt" stroke-linejoin="mitter" stroke-opacity="1.0" stroke-width="3.0" />
            <path d=" M 610.475, 442.593 615.642, 443.619 " fill="none" stroke="rgb(0, 0, 0)" stroke-linecap="butt" stroke-linejoin="mitter" stroke-opacity="1.0" stroke-width="3.0" />
            <path d=" M 706.084, 764.877 714.372, 770.473 722.660, 776.069 730.947, 781.665 739.235, 787.261 747.523, 792.857 755.810, 798.454 764.098, 804.050 772.385, 809.646 780.673, 815.242 788.961, 820.838 797.248, 826.434 805.536, 832.030 813.823, 837.626 822.111, 843.222 830.399, 848.818 838.686, 854.414 846.974, 860.010 855.262, 865.606 858.748, 867.960 " fill="none" stroke="rgb(0, 0, 0)" stroke-linecap="butt" stroke-linejoin="mitter" stroke-opacity="1.0" stroke-width="3.0" />
            <path d=" M 640.797, 553.816 643.602, 562.885 645.824, 570.069 647.763, 576.338 648.369, 578.295 649.459, 581.820 651.541, 588.551 652.248, 590.838 655.204, 600.391 658.159, 609.944 661.114, 619.498 664.069, 629.051 667.024, 638.604 669.979, 648.158 672.935, 657.711 675.890, 667.265 678.845, 676.818 681.800, 686.371 684.755, 695.925 688.012, 706.454 690.680, 715.080 692.961, 722.452 694.397, 727.095 696.836, 734.980 698.096, 739.053 700.646, 747.295 701.172, 748.996 704.127, 758.549 706.084, 764.877 " fill="none" stroke="rgb(0, 0, 0)" stroke-linecap="butt" stroke-linejoin="mitter" stroke-opacity="1.0" stroke-width="3.0" />
            <path d=" M 640.797, 553.816 645.668, 557.189 648.323, 559.028 649.571, 559.892 653.052, 562.302 654.709, 563.450 654.765, 563.488 655.421, 563.942 657.915, 565.669 659.986, 567.103 660.383, 567.378 661.390, 568.075 664.234, 570.045 665.028, 570.595 665.160, 570.686 665.290, 570.776 665.322, 570.798 665.813, 571.138 665.857, 571.169 674.079, 576.862 682.300, 582.554 685.229, 584.582 693.450, 590.275 701.672, 595.968 709.893, 601.660 718.115, 607.353 726.336, 613.046 734.558, 618.739 742.779, 624.431 751.001, 630.124 759.222, 635.817 767.444, 641.509 775.665, 647.202 783.887, 652.895 786.951, 655.017 788.314, 655.961 794.725, 660.399 795.345, 660.829 795.348, 660.831 796.130, 661.372 798.785, 663.211 799.071, 663.409 801.922, 665.383 807.242, 669.067 807.262, 669.080 808.019, 669.605 810.821, 671.545 811.567, 672.061 " fill="none" stroke="rgb(0, 0, 0)" stroke-linecap="butt" stroke-linejoin="mitter" stroke-opacity="1.0" stroke-width="3.0" />
            <path d=" M 640.797, 553.816 646.576, 553.655 " fill="none" stroke="rgb(0, 0, 0)" stroke-linecap="butt" stroke-linejoin="mitter" stroke-opacity="1.0" stroke-width="3.0" />
            <path d=" M 912.185, 290.314 906.890, 291.296 904.721, 291.698 894.889, 293.521 885.056, 295.344 875.224, 297.167 865.391, 298.990 858.530, 300.263 856.217, 300.691 853.994, 301.104 851.637, 301.541 841.805, 303.364 831.972, 305.187 822.140, 307.010 812.308, 308.833 802.475, 310.656 792.643, 312.479 791.305, 312.727 785.072, 313.883 777.743, 315.242 769.625, 316.747 759.792, 318.570 749.960, 320.393 740.127, 322.216 733.850, 323.380 724.018, 325.203 722.424, 325.499 717.823, 326.352 716.292, 326.636 715.893, 326.710 715.513, 326.780 712.305, 327.375 710.285, 327.749 707.253, 328.311 706.830, 328.390 701.976, 329.290 " fill="none" stroke="rgb(0, 0, 0)" stroke-linecap="butt" stroke-linejoin="mitter" stroke-opacity="1.0" stroke-width="3.0" />
            <path d=" M 701.976, 329.290 706.656, 332.056 " fill="none" stroke="rgb(0, 0, 0)" stroke-linecap="butt" stroke-linejoin="mitter" stroke-opacity="1.0" stroke-width="3.0" />
            <path d=" M 857.417, 198.331 857.424, 204.203 " fill="none" stroke="rgb(0, 0, 0)" stroke-linecap="butt" stroke-linejoin="mitter" stroke-opacity="1.0" stroke-width="3.0" />
            <path d=" M 857.417, 198.331 849.769, 204.774 842.121, 211.217 836.545, 215.915 828.898, 222.358 821.250, 228.801 820.990, 229.021 820.821, 229.163 813.174, 235.606 805.526, 242.049 797.878, 248.492 792.769, 252.797 785.121, 259.240 783.132, 260.916 775.485, 267.359 772.031, 270.268 766.185, 275.194 758.537, 281.637 757.841, 282.224 750.193, 288.667 742.545, 295.110 734.898, 301.553 727.250, 307.996 719.603, 314.440 718.323, 315.518 716.927, 316.694 716.005, 317.470 713.279, 319.767 710.527, 322.086 707.736, 324.437 706.987, 325.068 701.976, 329.290 703.431, 319.566 704.911, 309.676 705.782, 303.854 706.082, 301.848 707.301, 293.700 708.781, 283.810 709.010, 282.275 " fill="none" stroke="rgb(0, 0, 0)" stroke-linecap="butt" stroke-linejoin="mitter" stroke-opacity="1.0" stroke-width="3.0" />
            <path d=" M 872.268, 850.228 871.450, 851.301 867.204, 856.870 866.959, 857.191 865.743, 858.787 862.681, 862.802 858.748, 867.960 868.726, 867.292 878.704, 866.624 888.681, 865.956 898.659, 865.288 908.637, 864.620 918.614, 863.952 928.592, 863.283 938.570, 862.615 948.547, 861.947 958.525, 861.279 968.503, 860.611 978.480, 859.943 988.458, 859.275 998.436, 858.607 1008.413, 857.939 1018.391, 857.270 1028.369, 856.602 1038.346, 855.934 1048.324, 855.266 1058.982, 854.552 " fill="none" stroke="rgb(0, 0, 0)" stroke-linecap="butt" stroke-linejoin="mitter" stroke-opacity="1.0" stroke-width="3.0" />
            <path d=" M 811.567, 672.061 815.291, 673.029 822.950, 675.017 823.933, 675.273 823.937, 675.274 833.616, 677.787 843.295, 680.301 852.974, 682.814 862.653, 685.328 872.332, 687.841 882.011, 690.355 891.690, 692.868 901.369, 695.381 911.048, 697.895 920.727, 700.408 930.406, 702.922 940.085, 705.435 949.764, 707.949 959.443, 710.462 967.054, 712.439 968.768, 712.884 968.776, 712.886 968.866, 712.909 969.504, 713.075 970.368, 713.299 971.563, 713.610 971.984, 713.719 972.807, 713.933 975.252, 714.568 975.281, 714.575 975.300, 714.580 983.657, 716.750 987.759, 717.815 997.438, 720.329 1007.117, 722.842 1016.796, 725.356 1026.475, 727.869 1032.076, 729.324 1035.177, 730.129 1042.023, 731.907 1043.808, 732.370 1048.496, 733.588 " fill="none" stroke="rgb(0, 0, 0)" stroke-linecap="butt" stroke-linejoin="mitter" stroke-opacity="1.0" stroke-width="3.0" />
            <path d=" M 989.830, 505.362 986.088, 514.636 985.930, 515.026 " fill="none" stroke="rgb(0, 0, 0)" stroke-linecap="butt" stroke-linejoin="mitter" stroke-opacity="1.0" stroke-width="3.0" />
            <path d=" M 989.830, 505.362 982.526, 512.192 975.222, 519.022 967.918, 525.853 960.614, 532.683 953.310, 539.513 946.006, 546.343 938.702, 553.174 938.019, 553.812 932.374, 559.090 925.070, 565.921 923.528, 567.363 918.233, 572.315 910.929, 579.145 903.625, 585.975 896.321, 592.805 889.017, 599.635 881.713, 606.466 874.409, 613.296 867.105, 620.126 859.801, 626.956 852.497, 633.787 845.193, 640.617 837.889, 647.447 830.585, 654.277 823.281, 661.107 819.547, 664.599 819.531, 664.614 819.150, 664.970 819.112, 665.006 813.133, 670.597 811.567, 672.061 " fill="none" stroke="rgb(0, 0, 0)" stroke-linecap="butt" stroke-linejoin="mitter" stroke-opacity="1.0" stroke-width="3.0" />
            <path d=" M 811.567, 672.061 814.120, 670.853 820.207, 667.972 " fill="none" stroke="rgb(0, 0, 0)" stroke-linecap="butt" stroke-linejoin="mitter" stroke-opacity="1.0" stroke-width="3.0" />
            <path d=" M 979.479, 508.541 989.038, 505.605 989.830, 505.362 " fill="none" stroke="rgb(0, 0, 0)" stroke-linecap="butt" stroke-linejoin="mitter" stroke-opacity="1.0" stroke-width="3.0" />
            <path d=" M 811.567, 672.061 812.436, 670.416 816.283, 663.134 " fill="none" stroke="rgb(0, 0, 0)" stroke-linecap="butt" stroke-linejoin="mitter" stroke-opacity="1.0" stroke-width="3.0" />
            <path d=" M 1058.982, 854.552 1058.485, 848.811 1057.738, 840.198 1057.712, 839.900 1057.384, 836.116 1057.290, 835.026 1056.494, 825.852 1055.631, 815.889 1055.236, 811.332 1054.775, 806.019 1053.911, 796.056 1053.383, 789.957 1052.519, 779.995 1051.655, 770.032 1050.792, 760.069 1049.928, 750.107 1049.064, 740.144 1048.496, 733.588 " fill="none" stroke="rgb(0, 0, 0)" stroke-linecap="butt" stroke-linejoin="mitter" stroke-opacity="1.0" stroke-width="3.0" />
            <path d=" M 1048.496, 733.588 1050.351, 733.314 1060.245, 731.857 1070.138, 730.399 1080.031, 728.942 1089.924, 727.484 1099.818, 726.026 1109.711, 724.569 1114.140, 723.916 1118.971, 723.205 1125.953, 722.176 1132.374, 721.230 1142.268, 719.772 1149.277, 718.739 1150.068, 718.623 1155.720, 717.790 1155.987, 717.751 1165.880, 716.293 1175.773, 714.836 1185.667, 713.378 1195.560, 711.920 1196.160, 711.832 1202.302, 710.927 1203.966, 710.682 1206.965, 710.240 1209.368, 709.886 1211.442, 709.580 1211.817, 709.525 1212.547, 709.418 1214.224, 709.171 1218.460, 708.547 1220.469, 708.251 1225.162, 707.559 " fill="none" stroke="rgb(0, 0, 0)" stroke-linecap="butt" stroke-linejoin="mitter" stroke-opacity="1.0" stroke-width="3.0" />
            <path d=" M 981.661, 500.087 989.830, 505.362 " fill="none" stroke="rgb(0, 0, 0)" stroke-linecap="butt" stroke-linejoin="mitter" stroke-opacity="1.0" stroke-width="3.0" />
            <path d=" M 989.830, 505.362 986.434, 495.956 984.448, 490.458 981.965, 483.579 978.569, 474.173 975.173, 464.768 971.777, 455.362 968.381, 445.956 964.985, 436.551 961.589, 427.145 958.193, 417.739 955.059, 409.060 952.413, 401.731 949.017, 392.325 945.621, 382.920 942.225, 373.514 938.829, 364.108 935.433, 354.703 932.037, 345.297 930.741, 341.708 928.242, 334.787 924.846, 325.381 921.450, 315.976 918.054, 306.570 917.209, 304.228 916.799, 303.094 916.392, 301.967 916.160, 301.323 912.764, 291.918 912.185, 290.314 " fill="none" stroke="rgb(0, 0, 0)" stroke-linecap="butt" stroke-linejoin="mitter" stroke-opacity="1.0" stroke-width="3.0" />
            <path d=" M 912.185, 290.314 911.747, 300.305 911.634, 302.881 " fill="none" stroke="rgb(0, 0, 0)" stroke-linecap="butt" stroke-linejoin="mitter" stroke-opacity="1.0" stroke-width="3.0" />
            <path d=" M 990.380, 497.758 989.830, 505.362 " fill="none" stroke="rgb(0, 0, 0)" stroke-linecap="butt" stroke-linejoin="mitter" stroke-opacity="1.0" stroke-width="3.0" />
            <path d=" M 1144.088, 354.963 1135.064, 359.272 1132.630, 360.435 " fill="none" stroke="rgb(0, 0, 0)" stroke-linecap="butt" stroke-linejoin="mitter" stroke-opacity="1.0" stroke-width="3.0" />
            <path d=" M 1144.088, 354.963 1142.611, 354.551 1138.755, 353.476 1136.212, 352.767 1135.355, 352.529 1131.387, 351.422 1130.876, 351.280 1128.375, 350.582 1127.200, 350.255 1122.782, 349.023 1113.149, 346.338 1103.516, 343.653 1093.884, 340.967 1084.251, 338.282 1074.618, 335.597 1064.985, 332.911 1055.353, 330.226 1045.720, 327.540 1036.087, 324.855 1026.455, 322.170 1016.822, 319.484 1007.189, 316.799 1005.733, 316.393 1005.149, 316.230 998.942, 314.500 997.664, 314.144 988.031, 311.458 978.399, 308.773 977.040, 308.394 976.973, 308.376 976.801, 308.328 969.130, 306.189 968.363, 305.975 958.730, 303.290 949.097, 300.604 939.465, 297.919 929.832, 295.234 928.761, 294.935 925.612, 294.057 917.126, 291.692 914.096, 290.847 912.185, 290.314 " fill="none" stroke="rgb(0, 0, 0)" stroke-linecap="butt" stroke-linejoin="mitter" stroke-opacity="1.0" stroke-width="3.0" />
            <path d=" M 912.185, 290.314 917.425, 298.832 917.942, 299.673 " fill="none" stroke="rgb(0, 0, 0)" stroke-linecap="butt" stroke-linejoin="mitter" stroke-opacity="1.0" stroke-width="3.0" />
            <path d=" M 1199.286, 294.864 1190.424, 290.232 1181.561, 285.600 1172.699, 280.968 1163.836, 276.336 1154.974, 271.704 1146.111, 267.071 1137.249, 262.439 1128.386, 257.807 1119.524, 253.175 1110.661, 248.543 1101.799, 243.911 1092.937, 239.279 1084.074, 234.647 1075.212, 230.015 1066.349, 225.383 1057.487, 220.750 1048.624, 216.118 1039.762, 211.486 1030.240, 206.510 1038.524, 212.111 1045.209, 216.630 " fill="none" stroke="rgb(0, 0, 0)" stroke-linecap="butt" stroke-linejoin="mitter" stroke-opacity="1.0" stroke-width="3.0" />
            <path d=" M 1144.088, 354.963 1147.714, 351.014 1152.268, 346.057 1156.725, 341.203 1160.936, 336.619 1167.700, 329.254 1174.465, 321.889 1180.604, 315.205 1187.369, 307.840 1187.495, 307.702 1187.553, 307.639 1188.422, 306.693 1188.792, 306.290 1189.066, 305.992 1195.644, 298.830 1199.286, 294.864 " fill="none" stroke="rgb(0, 0, 0)" stroke-linecap="butt" stroke-linejoin="mitter" stroke-opacity="1.0" stroke-width="3.0" />
            <path d=" M 1199.286, 294.864 1193.683, 297.511 " fill="none" stroke="rgb(0, 0, 0)" stroke-linecap="butt" stroke-linejoin="mitter" stroke-opacity="1.0" stroke-width="3.0" />
            <path d=" M 1279.062, 487.556 1275.237, 478.316 1271.412, 469.077 1267.586, 459.837 1265.193, 454.056 1264.187, 451.627 1260.362, 442.387 1259.966, 441.431 1259.909, 441.294 1259.710, 440.812 1258.020, 436.731 1257.668, 435.880 1256.524, 433.117 1253.142, 424.947 1249.316, 415.708 1245.491, 406.468 1241.666, 397.229 1241.549, 396.946 1237.724, 387.706 1233.899, 378.467 1230.073, 369.228 1226.248, 359.988 1222.423, 350.749 1218.598, 341.509 1214.772, 332.270 1210.947, 323.030 1207.122, 313.791 1203.297, 304.551 1199.286, 294.864 " fill="none" stroke="rgb(0, 0, 0)" stroke-linecap="butt" stroke-linejoin="mitter" stroke-opacity="1.0" stroke-width="3.0" />
            <path d=" M 1199.286, 294.864 1196.438, 300.525 " fill="none" stroke="rgb(0, 0, 0)" stroke-linecap="butt" stroke-linejoin="mitter" stroke-opacity="1.0" stroke-width="3.0" />
            <path d=" M 1225.162, 707.559 1227.541, 697.846 1228.435, 694.199 1230.299, 686.588 1232.679, 676.875 1233.489, 673.571 1234.517, 669.374 1234.861, 667.971 1236.271, 662.215 1238.651, 652.502 1241.064, 642.653 1241.534, 640.734 1241.901, 639.235 1243.302, 633.515 1245.075, 626.280 1246.113, 622.042 1248.493, 612.329 1249.789, 607.039 1250.277, 605.045 1252.130, 597.485 1252.901, 594.337 1254.901, 586.173 1257.281, 576.460 1257.865, 574.075 1259.965, 565.501 1261.690, 558.460 1264.070, 548.748 1266.450, 539.035 1267.027, 536.676 1267.621, 534.253 1267.876, 533.214 1270.255, 523.501 1272.244, 515.384 1274.624, 505.671 1277.003, 495.958 1279.062, 487.556 " fill="none" stroke="rgb(0, 0, 0)" stroke-linecap="butt" stroke-linejoin="mitter" stroke-opacity="1.0" stroke-width="3.0" />
            <path d=" M 886.538, 830.499 887.218, 830.594 887.236, 830.596 897.140, 831.978 907.044, 833.359 916.948, 834.741 926.852, 836.122 936.756, 837.504 940.508, 838.027 950.412, 839.408 958.800, 840.578 965.142, 841.463 975.046, 842.844 980.666, 843.628 986.500, 844.442 996.405, 845.824 1006.309, 847.205 1015.498, 848.487 1017.296, 848.738 1027.200, 850.119 1034.423, 851.127 1044.327, 852.508 1054.231, 853.890 1058.982, 854.552 1067.488, 849.294 1075.995, 844.036 1084.500, 838.778 1093.006, 833.520 1101.512, 828.262 1110.018, 823.004 1118.525, 817.746 1127.031, 812.487 1135.536, 807.229 1144.042, 801.971 1152.548, 796.713 1161.054, 791.455 1169.561, 786.197 1178.067, 780.939 1179.909, 779.800 1185.217, 771.325 1190.526, 762.851 1195.834, 754.376 1201.143, 745.902 1206.452, 737.427 1211.760, 728.952 1217.069, 720.478 1222.378, 712.003 1225.162, 707.559 1223.650, 702.640 1222.999, 700.524 1221.626, 696.057 1221.178, 694.600 1220.938, 693.817 1220.717, 693.101 1220.056, 690.948 1219.591, 689.438 1218.265, 685.124 1217.718, 683.344 1216.073, 677.992 1213.135, 668.433 1210.717, 660.567 1209.531, 656.708 1208.035, 651.843 1207.162, 649.001 1204.224, 639.443 1201.286, 629.884 1198.348, 620.325 1195.409, 610.767 1192.471, 601.208 1189.533, 591.650 1186.595, 582.091 1183.657, 572.532 1182.695, 569.404 1180.917, 563.618 " fill="none" stroke="rgb(0, 0, 0)" stroke-linecap="butt" stroke-linejoin="mitter" stroke-opacity="1.0" stroke-width="3.0" />
            <path d=" M 1180.917, 563.618 1184.899, 560.532 1192.803, 554.406 1200.707, 548.280 1205.722, 544.393 1206.892, 543.487 1211.341, 540.039 1213.201, 538.597 1221.105, 532.472 1229.010, 526.346 1236.914, 520.220 1244.818, 514.095 1252.808, 507.902 1258.031, 503.855 1259.056, 503.060 1259.999, 502.330 1261.722, 500.994 1266.654, 497.172 1266.811, 497.051 1268.455, 495.776 1269.896, 494.660 1273.652, 491.748 1279.062, 487.556 1276.362, 477.927 1273.662, 468.299 1270.962, 458.670 1268.262, 449.041 1265.562, 439.413 1264.578, 435.902 1260.376, 426.827 1256.175, 417.753 1251.974, 408.678 1247.773, 399.603 1243.572, 390.528 1239.371, 381.453 1235.170, 372.379 1230.969, 363.304 1226.768, 354.229 1222.567, 345.154 1218.366, 336.080 1214.165, 327.005 1209.964, 317.930 1205.763, 308.855 1201.562, 299.781 1199.286, 294.864 1190.370, 290.337 1181.453, 285.809 1172.537, 281.282 1163.621, 276.755 1154.704, 272.227 1145.788, 267.700 1136.871, 263.172 1127.955, 258.645 1119.038, 254.118 1110.122, 249.590 1101.206, 245.063 1092.289, 240.536 1083.373, 236.008 1074.456, 231.481 1065.540, 226.953 1056.623, 222.426 1047.707, 217.899 1045.209, 216.630 " fill="none" stroke="rgb(0, 0, 0)" stroke-linecap="butt" stroke-linejoin="mitter" stroke-opacity="1.0" stroke-width="3.0" />
            <path d=" M 886.538, 830.499 887.927, 829.668 887.958, 829.649 895.052, 825.405 900.263, 822.286 906.516, 818.545 911.883, 815.333 917.927, 811.717 922.978, 808.694 927.469, 806.007 936.050, 800.872 944.631, 795.738 953.212, 790.603 961.793, 785.468 970.374, 780.334 978.955, 775.199 987.536, 770.064 991.704, 767.570 993.536, 766.474 995.610, 765.233 997.776, 763.937 1006.357, 758.803 1014.938, 753.668 1023.519, 748.533 1032.100, 743.399 1040.681, 738.264 1042.228, 737.339 1044.151, 736.187 1048.496, 733.588 1050.189, 731.414 1051.067, 730.288 1056.869, 722.841 1058.731, 720.450 1064.877, 712.562 1066.668, 710.263 1067.917, 708.660 1072.641, 702.596 1073.514, 701.475 1079.660, 693.587 1085.806, 685.698 1091.952, 677.810 1098.097, 669.921 1104.243, 662.033 1109.851, 654.835 1111.228, 653.068 1113.028, 650.757 1114.235, 649.207 1120.381, 641.319 1126.527, 633.430 1132.673, 625.542 1138.818, 617.653 1144.964, 609.765 1151.110, 601.876 1157.256, 593.988 1163.402, 586.099 1169.999, 577.631 1172.878, 573.935 1173.737, 572.833 1173.799, 572.754 1179.132, 565.909 1180.854, 563.699 1180.917, 563.618 1180.899, 563.517 1180.794, 562.926 1179.270, 554.291 1179.203, 553.908 1179.201, 553.895 1178.905, 552.223 1177.833, 546.149 1176.095, 536.301 1174.675, 528.254 1174.566, 527.639 1173.675, 522.592 1173.487, 521.525 1171.749, 511.678 1170.992, 507.390 1170.943, 507.114 1169.577, 499.372 1169.564, 499.299 1167.826, 489.451 1166.088, 479.603 1164.349, 469.755 1162.611, 459.908 1160.873, 450.060 1159.135, 440.212 1157.397, 430.364 1155.658, 420.517 1153.920, 410.669 1152.182, 400.821 1150.444, 390.973 1148.706, 381.125 1148.292, 378.779 1147.085, 371.941 1145.613, 363.602 1144.897, 359.546 1144.088, 354.963 1143.277, 353.829 1141.168, 350.878 1139.609, 348.697 1137.566, 345.839 1137.303, 345.470 1135.405, 342.816 1129.764, 334.923 1127.338, 331.529 1123.072, 325.562 1119.755, 320.921 1113.940, 312.786 1108.125, 304.651 1103.232, 297.806 1097.417, 289.670 1091.602, 281.535 1087.753, 276.151 1081.938, 268.015 1076.406, 260.275 1070.591, 252.140 1064.776, 244.004 1064.529, 243.659 1062.436, 240.732 1057.194, 233.397 1057.108, 233.278 1054.763, 229.997 1054.031, 228.972 1052.544, 226.892 1048.708, 221.525 1045.209, 216.630 " fill="none" stroke="rgb(0, 0, 0)" stroke-linecap="butt" stroke-linejoin="mitter" stroke-opacity="1.0" stroke-width="3.0" />
            <path d=" M 613.353, 633.002 613.202, 623.003 613.051, 613.004 612.900, 603.005 612.749, 593.006 612.598, 583.007 612.446, 573.009 612.295, 563.010 612.144, 553.011 611.993, 543.012 611.842, 533.013 611.691, 523.014 611.540, 513.015 611.389, 503.017 611.237, 493.018 611.086, 483.019 610.935, 473.020 610.784, 463.021 610.633, 453.022 610.475, 442.593 615.712, 434.073 620.948, 425.554 626.184, 417.035 631.420, 408.515 636.657, 399.996 641.893, 391.476 647.129, 382.957 652.366, 374.437 657.602, 365.918 662.838, 357.398 668.074, 348.879 673.311, 340.359 678.547, 331.840 683.783, 323.320 689.019, 314.801 694.256, 306.281 699.492, 297.762 704.728, 289.242 709.010, 282.275 717.715, 277.352 726.419, 272.428 735.123, 267.505 743.827, 262.582 752.531, 257.658 761.235, 252.735 769.939, 247.812 778.643, 242.888 787.347, 237.965 796.051, 233.042 804.755, 228.118 813.459, 223.195 822.163, 218.272 830.867, 213.348 839.571, 208.425 848.275, 203.502 857.417, 198.331 867.370, 199.301 877.322, 200.271 887.275, 201.241 897.228, 202.210 907.181, 203.180 917.134, 204.150 927.087, 205.120 937.040, 206.090 946.992, 207.060 954.878, 207.828 964.831, 208.798 974.784, 209.768 984.736, 210.738 994.689, 211.707 1000.910, 212.314 1010.863, 213.284 1015.623, 213.747 1021.013, 214.273 1024.773, 214.639 1025.169, 214.678 1025.899, 214.749 1026.559, 214.813 1030.179, 215.166 1031.945, 215.338 1033.505, 215.490 1038.035, 215.931 1039.864, 216.109 1045.209, 216.630 1042.370, 218.203 1042.108, 218.348 1039.268, 219.921 1038.420, 220.391 1038.069, 220.585 1037.054, 221.148 1035.815, 221.834 1034.020, 222.828 1033.859, 222.917 1031.323, 224.322 1030.701, 224.666 1030.469, 224.795 1029.821, 225.154 1026.632, 226.920 1023.069, 228.894 1021.735, 229.633 1019.419, 230.916 1016.131, 232.737 1007.383, 237.583 998.636, 242.428 989.888, 247.273 981.140, 252.119 972.393, 256.964 963.645, 261.810 954.897, 266.655 946.150, 271.501 944.215, 272.572 940.172, 274.812 934.145, 278.150 931.361, 279.693 922.613, 284.538 913.865, 289.383 913.382, 289.651 912.185, 290.314 908.799, 294.533 907.517, 296.130 902.721, 302.106 899.631, 305.955 893.372, 313.754 887.113, 321.552 880.853, 329.351 874.594, 337.150 868.334, 344.949 866.435, 347.314 864.515, 349.707 862.673, 352.003 860.724, 354.431 854.465, 362.229 848.205, 370.028 841.946, 377.827 840.996, 379.010 840.629, 379.467 835.775, 385.516 835.662, 385.656 829.402, 393.455 823.143, 401.253 816.884, 409.052 810.624, 416.851 804.365, 424.649 798.105, 432.448 791.846, 440.247 785.587, 448.046 784.532, 449.359 782.995, 451.274 779.592, 455.515 " fill="none" stroke="rgb(0, 0, 0)" stroke-linecap="butt" stroke-linejoin="mitter" stroke-opacity="1.0" stroke-width="3.0" />
            <path d=" M 792.003, 454.599 782.030, 455.335 779.592, 455.515 " fill="none" stroke="rgb(0, 0, 0)" stroke-linecap="butt" stroke-linejoin="mitter" stroke-opacity="1.0" stroke-width="3.0" />
            <path d=" M 779.592, 455.515 789.322, 457.822 799.052, 460.129 802.095, 460.851 809.181, 462.531 818.911, 464.838 828.642, 467.145 838.372, 469.452 848.102, 471.759 857.832, 474.066 867.563, 476.373 877.293, 478.680 887.023, 480.987 892.631, 482.316 900.066, 484.079 909.796, 486.386 919.527, 488.693 929.257, 491.000 938.987, 493.307 948.717, 495.614 958.448, 497.921 965.025, 499.481 972.847, 501.335 982.577, 503.642 989.830, 505.362 999.395, 508.278 1008.960, 511.194 1018.526, 514.110 1028.091, 517.027 1037.656, 519.943 1047.222, 522.859 1054.533, 525.088 1061.423, 527.188 1070.988, 530.105 1080.554, 533.021 1090.119, 535.937 1099.685, 538.853 1109.250, 541.769 1118.815, 544.685 1128.381, 547.601 1129.074, 547.813 1137.556, 550.399 1147.121, 553.315 1156.686, 556.231 1166.252, 559.147 1168.869, 559.945 1169.420, 560.113 1174.010, 561.512 1180.917, 563.618 " fill="none" stroke="rgb(0, 0, 0)" stroke-linecap="butt" stroke-linejoin="mitter" stroke-opacity="1.0" stroke-width="3.0" />
            <path d=" M 789.533, 463.854 781.871, 457.427 779.592, 455.515 " fill="none" stroke="rgb(0, 0, 0)" stroke-linecap="butt" stroke-linejoin="mitter" stroke-opacity="1.0" stroke-width="3.0" />
            <path d=" M 779.592, 455.515 779.832, 457.145 780.907, 464.424 781.020, 465.186 781.020, 465.186 782.480, 475.078 783.793, 483.965 783.839, 484.277 785.024, 492.303 785.115, 492.919 785.117, 492.936 786.578, 502.829 787.746, 510.740 788.248, 514.141 788.421, 515.311 788.903, 518.574 790.364, 528.466 791.824, 538.359 793.285, 548.252 794.746, 558.144 796.207, 568.037 797.668, 577.930 799.128, 587.823 800.589, 597.715 802.050, 607.608 803.511, 617.501 804.971, 627.394 806.432, 637.286 807.893, 647.179 808.260, 649.664 808.827, 653.505 808.888, 653.920 809.483, 657.945 809.498, 658.049 809.746, 659.728 810.829, 667.061 811.280, 670.115 811.331, 670.465 811.414, 671.023 811.567, 672.061 813.284, 675.689 814.080, 677.372 814.676, 678.631 818.953, 687.670 823.230, 696.709 827.507, 705.748 831.784, 714.787 836.062, 723.826 840.339, 732.865 844.616, 741.904 848.893, 750.944 853.170, 759.983 857.448, 769.022 861.725, 778.061 866.002, 787.100 867.605, 790.487 867.611, 790.500 867.768, 790.831 869.999, 795.547 870.527, 796.662 870.689, 797.004 871.664, 799.066 873.777, 803.532 876.143, 808.531 877.750, 811.928 880.426, 817.583 882.826, 822.654 883.517, 824.114 886.538, 830.499 880.429, 828.278 879.136, 827.807 869.738, 824.390 865.135, 822.716 863.087, 821.971 859.509, 820.670 857.763, 820.035 848.365, 816.617 838.967, 813.200 829.569, 809.782 820.171, 806.365 810.774, 802.947 801.376, 799.530 791.978, 796.112 781.935, 792.460 772.537, 789.043 768.858, 787.705 761.199, 784.920 756.435, 783.187 747.037, 779.770 742.038, 777.952 738.492, 776.662 732.213, 774.379 725.836, 772.060 716.438, 768.643 707.040, 765.225 706.084, 764.877 700.332, 756.697 694.580, 748.517 688.828, 740.337 683.076, 732.157 677.324, 723.977 671.572, 715.797 665.820, 707.617 660.068, 699.437 654.316, 691.256 648.564, 683.076 642.812, 674.896 637.060, 666.716 631.308, 658.536 625.556, 650.356 619.804, 642.176 613.353, 633.002 616.628, 623.553 617.773, 620.247 621.048, 610.799 621.129, 610.566 621.492, 609.517 624.767, 600.068 627.773, 591.394 631.048, 581.945 634.323, 572.497 637.597, 563.048 640.797, 553.816 645.537, 550.459 646.463, 549.803 650.055, 547.259 650.633, 546.849 653.225, 545.014 653.672, 544.697 654.270, 544.274 656.795, 542.485 660.079, 540.160 661.349, 539.260 667.169, 535.138 672.123, 531.630 676.883, 528.258 685.044, 522.478 693.204, 516.699 701.365, 510.919 709.525, 505.139 717.686, 499.360 725.846, 493.580 734.007, 487.800 742.168, 482.020 749.576, 476.774 749.745, 476.654 754.704, 473.142 755.058, 472.891 755.064, 472.887 763.225, 467.107 771.385, 461.327 778.186, 456.510 779.592, 455.515 " fill="none" stroke="rgb(0, 0, 0)" stroke-linecap="butt" stroke-linejoin="mitter" stroke-opacity="1.0" stroke-width="3.0" />
            <path d=" M 889.996, 817.445 887.435, 827.112 886.538, 830.499 880.580, 838.530 874.622, 846.562 871.846, 850.304 871.087, 851.327 867.081, 856.728 865.592, 858.735 862.569, 862.810 858.748, 867.960 858.525, 861.956 " fill="none" stroke="rgb(0, 0, 0)" stroke-linecap="butt" stroke-linejoin="mitter" stroke-opacity="1.0" stroke-width="3.0" />
            <path d=" M 701.976, 329.290 706.444, 336.555 709.201, 341.040 709.685, 341.827 711.040, 344.030 712.667, 346.676 716.591, 353.058 721.829, 361.576 722.693, 362.982 727.931, 371.500 729.280, 373.694 733.542, 380.624 737.676, 387.349 742.914, 395.867 748.152, 404.386 753.390, 412.904 758.628, 421.422 763.866, 429.941 769.104, 438.459 774.342, 446.978 779.592, 455.515 " fill="none" stroke="rgb(0, 0, 0)" stroke-linecap="butt" stroke-linejoin="mitter" stroke-opacity="1.0" stroke-width="3.0" />
            <path d=" M 1174.512, 559.496 1180.917, 563.618 1173.210, 564.727 " fill="none" stroke="rgb(0, 0, 0)" stroke-linecap="butt" stroke-linejoin="mitter" stroke-opacity="1.0" stroke-width="3.0" />
            <path d=" M 1179.909, 779.800 1176.134, 776.877 " fill="none" stroke="rgb(0, 0, 0)" stroke-linecap="butt" stroke-linejoin="mitter" stroke-opacity="1.0" stroke-width="3.0" />
            <path d=" M 618.548, 632.500 613.353, 633.002 " fill="none" stroke="rgb(0, 0, 0)" stroke-linecap="butt" stroke-linejoin="mitter" stroke-opacity="1.0" stroke-width="3.0" />
            <path d=" M 710.486, 756.950 709.951, 757.914 708.873, 759.855 706.084, 764.877 " fill="none" stroke="rgb(0, 0, 0)" stroke-linecap="butt" stroke-linejoin="mitter" stroke-opacity="1.0" stroke-width="3.0" />
            <path d=" M 713.714, 284.821 709.010, 282.275 " fill="none" stroke="rgb(0, 0, 0)" stroke-linecap="butt" stroke-linejoin="mitter" stroke-opacity="1.0" stroke-width="3.0" />
            <path d=" M 1044.241, 220.476 1044.528, 219.334 1045.209, 216.630 " fill="none" stroke="rgb(0, 0, 0)" stroke-linecap="butt" stroke-linejoin="mitter" stroke-opacity="1.0" stroke-width="3.0" />
            <path d=" M 1041.275, 724.430 1047.467, 732.283 1048.496, 733.588 " fill="none" stroke="rgb(0, 0, 0)" stroke-linecap="butt" stroke-linejoin="mitter" stroke-opacity="1.0" stroke-width="3.0" />
            <path d=" M 1055.848, 849.670 1058.982, 854.552 1059.234, 848.353 " fill="none" stroke="rgb(0, 0, 0)" stroke-linecap="butt" stroke-linejoin="mitter" stroke-opacity="1.0" stroke-width="3.0" />
            <path d=" M 1220.744, 704.825 1221.978, 705.589 1225.162, 707.559 " fill="none" stroke="rgb(0, 0, 0)" stroke-linecap="butt" stroke-linejoin="mitter" stroke-opacity="1.0" stroke-width="3.0" />
            <path d=" M 1259.768, 435.887 1264.578, 435.902 " fill="none" stroke="rgb(0, 0, 0)" stroke-linecap="butt" stroke-linejoin="mitter" stroke-opacity="1.0" stroke-width="3.0" />
            <path d=" M 1266.141, 617.823 1270.800, 619.467 " fill="none" stroke="rgb(0, 0, 0)" stroke-linecap="butt" stroke-linejoin="mitter" stroke-opacity="1.0" stroke-width="3.0" />
        </g>
    </g>
</svg>
